# xmcd CD database file
#
# Track frame offsets:
#	150
#	7015
#	22475
#	36170
#	51680
#	71630
#	87075
#	106935
#	123805
#	141805
#	157065
#	172390
#	193770
#	211115
#	231775
#	274697
#	313062
#
# Disc length: 4440 seconds
#
# Revision: 2
# Processed by: cddbd v1.5.1PL2 Copyright (c) Steve Scherf et al.
# Submitted via: CDex 1.51
#
DISCID=00115611
DTITLE=Kelis - Tasty
DYEAR=2004
DGENRE=R&B
TTITLE0=Intro
TTITLE1=Trick Me
TTITLE2=Milkshake
TTITLE3=Keep It Down
TTITLE4=In Public ft. NAS
TTITLE5=Flashback
TTITLE6=Protect My Heart
TTITLE7=Millionaire ft. Andre 3000
TTITLE8=Glow ft. Raphael Saadiq
TTITLE9=Suger Honey Iced Tea
TTITLE10=Attention ft. Raphael Saadiq
TTITLE11=Rolling Through The Hood
TTITLE12=Stick Up
TTITLE13=Marathon
TTITLE14=Milkshake (X-Press 2 Triple Thick Vocal Mix)
TTITLE15=Milkshake (DJ Zinc Remix)
TTITLE16=data
EXTD=YEAR: 2004
EXTT0=
EXTT1=
EXTT2=
EXTT3=
EXTT4=
EXTT5=
EXTT6=
EXTT7=
EXTT8=
EXTT9=
EXTT10=
EXTT11=
EXTT12=
EXTT13=
EXTT14=
EXTT15=
EXTT16=
PLAYORDER=
